<?xml version="1.0" encoding="utf-8"?>
<!-- Generator: Adobe Illustrator 15.0.1, SVG Export Plug-In . SVG Version: 6.00 Build 0)  -->
<!DOCTYPE svg PUBLIC "-//W3C//DTD SVG 1.1//EN" "http://www.w3.org/Graphics/SVG/1.1/DTD/svg11.dtd">
<svg version="1.1" id="Layer_1" xmlns="http://www.w3.org/2000/svg" xmlns:xlink="http://www.w3.org/1999/xlink" x="0px" y="0px"
	 width="77px" height="77px" viewBox="0 0 77 77" enable-background="new 0 0 77 77" xml:space="preserve">
<path fill="#FFFFFF" stroke="#FFFFFF"
  d="M44.507,0.091c2.013,0.167,5.185,1.174,7.561,3.259c2.532,2.45,3.105,6.183,2.222,9.564
	c-0.79,3.026-1.671,4.596-4.756,6.673c-3.11,2.122-6.887,1.945-6.887,1.945v13.075l6.373,5.157l-6.373,5.139v17.83
	c0,0,6.39-3.674,10.342-11.838c0,0,0.162-0.455,0.534-1.312c0.354,2.211,0.146,6.656-2.335,12.34
	c-1.868,4.293-5.261,8.438-9.535,10.803c-7.553,4.169-13.227,4.576-19.297,3.316c-7.11-1.476-13.576-5.453-17.997-12.43
	c-3.088-4.914-4.476-10.619-4.351-16.783c0.254-12.062,9.222-22.45,19.583-26.355c1.265-0.465,1.77-0.781,3.553-0.931
	c-0.819,0.556-1.771,1.269-2.94,2.042c-3.341,2.219-6.206,6.574-7.419,9.932l20.109-8.963v28.126L16.681,58.78
	c1.846,2.588,7.456,6.453,12.268,6.996c8.157,0.9,12.959-2.662,12.959-2.662l-0.006-18.212l-6.327-5.139l6.333-5.145V21.532
	c-3.451-0.406-7.648-1.552-10.105-2.157c-3.609-0.893-15.631-4.264-17.516-4.544c-1.896-0.276-4.225-0.189-5.638,1.064
	c-1.411,1.278-2.283,3.515-1.678,5.532c0.336,1.139,1.12,1.806,1.719,2.448c0,0-0.689-0.052-1.963-0.806
	c-2.26-1.361-3.993-4.042-4.199-7.334c-0.26-4.282,1.512-8.168,5.058-10.788c3.092-1.973,6.582-3.249,10.646-2.679
	c5.921,0.846,13.878,4.209,20.978,5.907c2.747,0.661,4.882,0.875,6.808-0.243c0.902-0.636,2.484-2.31,1.194-4.553
	c-1.509-2.598-4.406-2.532-6.858-3.006C42.455-0.06,42.931-0.06,44.507,0.091z M20.601,55.985v-27.15l-8.169,3.66
	c0,0-2.086,4.652-1.727,11.425c0.282,5.274,3.241,11.597,5.516,14.242L20.601,55.985z"/>
</svg>
